<?xml version="1.0" encoding="UTF-8"?>
<svg version="1.1" viewBox="0 0 2048 1536" width="250" height="200" xmlns="http://www.w3.org/2000/svg">
<path transform="translate(799,366)" d="m0 0h8l16 7 16 10 30 20 10 7 7 5 1-3 3 1 1 2 8-9 10-5 9-1h20l8 2 3 5 1 29 2 18 2 5 4 2 10 7 13 8 21 13 26 15 19 12 14 10 9 7-4 1 7 6 4 1-1-6 2-5 2 1v3l4-1v4l3 1v-2h2v-4l3 1v2l10-5 22-14 17-11 17-10 9-3 7-1 13 3 14 7 31 21 20 14 12 8 23 16 15 10 13 8 19 12 21 13 20 13 19 13 18 11 11 6 11 7 7 6 6 11 3 9 6 5v2h2l1 2 8 4h1l7 6 3 3v2l4 2 10 9 3 2-1 4-4 2 1 6 5 6 5 4 2 1v2l4 2 7 6 5 4 6 5v2l4 2v2l4 2 10 6 18 6 19 4 12 1 6 1 4 1 2-1 5 5 8 2 7 4 4 5 3 1 5-1 4 2 16 2 19 7 13 8 9 10 6 12 3 13 1 11v78l-3 90-3 69-1 42 38-18 12-5 13-3h40l12 3 12 6 5 4 4 6 2 7v8l-7 14-13 17-8 10-10 11-7 8-12 14-11 14-9 11-22 26-11 14-9 10-9 11-17 17-11 7-10 5-11 3-26 3h-179l-16-3-9-5-10-9-9-10-8-15-6-19-5-24-4-36-3-30-5-27-4-23-2-7-1-11-2-1 1 3v13l-6 1-1 3h-9l1-8-1 2h-2v-6h-2l-2 6 1 3-3 3v-2h-2v2l-8 1h-5l-3-2-1 2h-21l-8-2-2-4h-2l-3 5h-36l-7-3v-6l-4 1-1 4h2l-1 2-4 1-1 2-5-1-2-1h-8l-5 2-3-2h-12l-1 1-7 1h-14l-1 1h-5l-6-5-4 1-4 2-12 1-8-1h-13l-6-3-4-10-3-1-4-4 1 5-3 1v2l-3 3h-2v-11h2v-6h-2l-1 2v-4l-3-2 1 4h-2l-2 4-5 2-1 5-10 13-10 2-27-1-4-3h-3l-1 3-6 1-2-2-6 1-1 1h-28l-6-4-3-1-1 4-1 1h-5l-5-2-3 2-11-1-6 1-10-1-2 1-7-3-2-4-4-1-6 8-2 1-4-1v-2l-7 2h-8l-3-1-1 1h-41l-5-1-1 1-77 1-34 1h-50l-214-1-18-2-5-2-4-5v-2l-4-2-4-9-7-16v4l1 13 3 8-3 1-5-5-3-9v-19h3l-2-9h-3l-1 8v9l-5 16-6 9-5 6-10 5h-16l-10-4-13-10-1-1v7l-1 2h-2v-13h2l-4-17-1-2-1 7v16l-5 8 3-3 2-3-1 7-6 4-7 3-7-1-4-4-4-15-1-21-3-8-5-5-3-4v-6h-2l2-5-1-3 6-1 1-3 2 4v-2l2-1 1-5 5-6 4-13 2-9v-6l-3-6-2-2-1-5h-2l-3-7-7-6-4-1-1-2-5-1-6-4-5-2h-14l-5-2h-27l-16-2-7 1-16-10-11-9-11-11-7-10-8-16-5-17-3-16v-20l5-24 7-19 8-15 9-12 10-10 13-8 22-12 9-6 10-3 6-3-12 3-5 1-1-4-12 5-6 2 6-8h3v-2l-5 3-19 19-2-1 4-5 17-17 10-7 13-5h3l2-4 6-3 3 1 9-5-9 1 2-2 21-4 17-7 17-8 32-13 4-1 19-12 29-17 21-13 23-14 20-13 57-36 17-12 14-10 16-13 13-11 8-7 8-8 9-7-25 2-30 3-14 1h-12l-1-6 1-2h2v-2l11-9 15-10 25-15 19-12 21-13 23-15 19-12 34-23 57-38 18-13 15-10zm-443 353m-4 1-18 8 4 1 13-6 4-1 1-2zm-7 8-14 5-12 3v1h13l-14 4-10 5-14 10-2 3 4 1-1 2 9-3 10-5v-3l5-2 9-5 11-9 8-5v-2zm-14 2m-50 18m-16 7m49 0m-51 1m9 0m41 0m-51 1m7 0m-1 1m23 1m16 1m-2 1m-52 1m41 0m9 0m-52 1-5 3 2 1 5-3zm40 0m-1 1m-3 1m-3 1-10 5 2 1 11-5zm-43 2m50 0m-53 1m52 0m-1 1m-1 1m-51 1m35 0-2 2 4-1zm15 0m-1 1m-18 1m14 3m-1 1-2 3 3-1zm-4 3m1238 9m-1198 288m-2 1 1 2 1-2z" fill="#FDFDFD"/>
<path transform="translate(1650,845)" d="m0 0h16l8 3 4 4 2 5v62l-5 154-2 55v37l2 11 6 8 6 3h9l16-9 16-11 13-8 16-8 14-4 15-2h14l6 2-2 6-13 17-6 7-3 5-5 5-12 14-11 14-12 15-4 6h-2l-4 8-3 2-3 5-3 2-2 4-3 2-3 5-5 5-6 7-2 4-3 2-1 3-3 2-2 4-4 3-2 4-5 5-6 7-5 5-14 9-8 2-9 1h-159l-15-2-12-4-9-6-7-7-6-12-5-16-4-23-5-52-5-47-1-14v-27l3-10 6-8 5-5 10-7 11-5 17-4 18-2 67-3 21-2 14-3 9-3v-2l11-8 7-8 5-10 4-16 4-34 4-46 6-50 5-35 3-6 5-4z" fill="#FDFDFD"/>
<path transform="translate(1652,811)" d="m0 0h11l13 5 12 7 7 7 4 5 3 3 4 16 1 11v78l-3 90-3 69-1 42 38-18 12-5 13-3h40l12 3 12 6 5 4 4 6 2 7v8l-7 14-13 17-8 10-10 11-7 8-12 14-11 14-9 11-22 26-11 14-9 10-9 11-17 17-11 7-10 5-11 3-26 3h-179l-16-3-9-5-10-9-9-10-8-15-6-19-5-24-4-36-3-30-2-12-1-37v-28l4-18 7-14 7-10 7-7 13-9 11-5 17-4 15-2 100-6 11-2 8-6 4-5 4-12 3-23 8-86 5-43 4-20 4-9 8-11 8-7 16-8zm-2 34-6 3-4 5-3 17-7 53-5 51-3 32-3 20-5 16-6 9-8 7-7 5v2l-9 3-14 3-21 2-67 3-18 2-17 4-16 8-8 6-8 11-3 10v27l4 44 4 37 4 39 4 20 7 19 6 8 9 8 12 5 9 2 10 1h159l13-2 8-3 14-10 4-6 6-7 3-2 3-5 3-2 2-4 2-1 2-4 3-2 3-5 7-9 4-3 2-4 3-2 1-3 5-4 2-4 3-3 3-4v-2l4-2 6-9 13-16 9-11 11-13 5-5 4-7 8-9 9-13 1-4-6-2h-14l-20 3-16 6-16 9-24 16-14 8h-9l-6-3-6-8-2-11v-37l5-149 2-60v-62l-4-8-6-3-4-1z" fill="#7192C3"/>
<path transform="translate(667,521)" d="m0 0h5l14 9 20 13 29 19 18 12 23 15 24 16 29 19 15 10 24 15 15 10 13 8 7 4 9 7 6 3 1 3 5 2 24 16 44 29 35 24-1 2-52 1v-2h-8l-8-5-10-6-15-10-28-18-15-10-22-14-15-10-14-9-15-10-17-11-15-10-14-9-24-16-20-13-5-3v-2l-4-1-16-10-23-14-10-6-5-4h-6l-17 10-33 22-17 11-22 14-20 13-18 12-4 1-5 5-16 10-7 5-4 1-5 5-10 6-26 17-54 36h-2v2l-13 7-14 9-11 4-11 1-13 1h-23l-8-2 2-1v-3l14-8 11-9 7-4 1-2-2-1 7-3 10-9 19-12 29-17 21-13 23-14 20-13 57-36 17-12 14-10 6-5 7-2 5-5 10-7h3v-2l6-4 7-3 20-13 5-1v-2l17-11h2l1-3 9-3 1-3z" fill="#074D80"/>
<path transform="translate(1432,798)" d="m0 0h38l1 1 1 7v66l6-8 3-2 4-7h2l2-5 1-2h2l2-4 1-3h2l2-5 5-8h2l2-5 1-2h2l2-5 1-2h2l1-4 9-9 4-3h37l4 1-1 4-12 17-14 19-14 18-8 12-3 4v9h2l5 11v2h2l4 9v2h2l1 4 2 1 2 7h2l3 9h2l2 7h2l1 5h2l2 7h2l2 7h2l1 5h2l2 7h2l3 9h2l2 7h2l2 7h2l2 5h-45l-5-5-14-25-20-36-8-12-6 5-9 14-3 5-1 6-1 48-9 1h-30l-7-2v-190l1-3z" fill="#45659F"/>
<path transform="translate(799,366)" d="m0 0h8l16 7 16 10 30 20 10 7 7 5 1-3 3 1 1 2 8-9 10-5 9-1h20l8 2 3 5 1 29 2 18 2 5 4 2 5 4 4 5 15 10 10 6 10 7 9 5 9 6 5 3v2l5 2 4 4 1 5 4 5 4 8v2l-3 1-1 3 3 2v2h-14l-17-11-15-9-26-17-14-9v-2h-3v-2h-3l-1-2-7-3-6-4v-2l-5-1v-2h-3v-2l-4-1-2-1v-2h-3v-2l-5-2-3-1v-2h-3v-2l-4-1-7-4v-2l-5-2-4-2v-2l-5-2-24-16-13-7-14-10-11-7-5-3-9-6h-7l-10 6-20 13-15 10-11 7-15 10-20 13-35 23-11 7-25 17-26 17-18 11-12 6-12 3-4 2h-5v2l-14 1h-12l-1-6 1-2h2v-2l11-9 15-10 25-15 19-12 21-13 23-15 19-12 34-23 57-38 18-13 15-10z" fill="#084D80"/>
<path transform="translate(382,799)" d="m0 0h51l9 29 20 67 16 52 8 27 3 10v3h2v6l-22 1-22-1-3-2-3-11-2-12-5-20-4-1-51-2-4 16-8 29-2 3h-41l1-8 6-19 4-17 6-20 3-9 5-17 9-27 6-22 4-13 6-22 6-19z" fill="#4766A0"/>
<path transform="translate(723,799)" d="m0 0h39l3 3 8 29 22 74 7 23 5 17 11 37 3 8v3h-45l-2-2-9-42-2-3-11-1h-43l-3 8-6 27-3 11-1 2h-41l-1-4 5-15 7-26 12-40 8-26 6-20 7-23 8-30 3-9z" fill="#46669F"/>
<path transform="translate(665,564)" d="m0 0h6l11 8 11 6 13 8 20 13 3 1v2l5 2 20 13 24 16 14 9 15 10 20 13 12 8 14 9 15 10 22 14 12 8 31 20 4 4-3 1 1 3-1 3 10 7-1 3-9 2-9 1h-13l-19-1-1-1-2-14-5-5-15-10-11-7-16-11-12-8-11-7-10-7-44-28-17-11-24-15-21-14-16-11-14-10-4-3-4 1-8 7-15 10-19 12-40 26-33 22-14 9-15 10-51 33-13 10-8 7-3 6-2 6-5 3h-26l-14-2-4-4 3-5 3-3h2v-2l15-8 6-4h2v-2l20-12 17-11 20-12 27-18h2v-3h-7l-7 6-9 4h-3v2l-11 6-8 7-7 4-6 3-5 3-2-1 13-9 17-11 13-9 9-5 2-3 7-3 15-10 8-5 2-3 7-3 15-10 20-13 19-12 15-10 16-10 13-9 16-10z" fill="#C5C7CA"/>
<path transform="translate(1172,491)" d="m0 0 12 2 2 1v2l5 2 16 11 8 5v2l4 1 15 10 14 9 22 15 14 9 26 17 13 9 9 5 1 3h3v2l5 2 11 7 4 2v2l4 1 4 2v2h3v2l5 2 15 9 14 9 9 6 7 4 10 7 5 3v2l5 2 3 3v3l-7 1-7-1-1 3h-10l-13-2-10-4-7-6-4-1v-2l-5-2-18-11-7-5-11-6v-2l-4-1-11-7-15-10-23-15-19-12-9-6-7-5-3-1v-2h-3v-2h-3v-2l-5-2-4-3-5-2v-2l-5-2-8-4v-2l-5-2-11-7-11-8-10-6-6-1-9 6-11 6-14 10-10 7-6 3-13 9-20 13-10 7-16 10-21 14-14 9-10 7-18 11-12 9-17 10-11 7-13 6-5 2-14 1-13 2-6-2-2-3 1-5 4-4 5-4 7-2v-2l5-1v-2l8-4 15-10 16-10 1-2h3v-2l6-3 3-1v-2h3v-2l7-4h2v-2h3v-2l6-3 1-2 11-6 5-4h2v-2h3v-2h3v-2h3v-2l3-1 1-2 4-1 1-2 5-1v-2h3l1-3h3v-2h3v-2l8-4 3-3 10-5 1-2h3v-2h3v-2h3v-2l7-5h3v-2l10-6h2v-2l6-2v-2l5-1v-2l6-2v-2l7-4 9-6 7-5 5-2 4-4 10-6z" fill="#074C7F"/>
<path transform="translate(561,799)" d="m0 0h28l16 4 16 8 9 7 4 4-1 5-9 11-9 9h-7l-10-4-11-4h-25l-8 6-1 2v10l3 5v2l9 3 13 5v2h5v2l10 1 9 4v2l9 2 3 2v2l4 1v2l6 2 4 4 4 7 1 3h2l6 14 1 5v14l-5 14-9 14-11 11-14 8-14 4-6 1h-24l-16-3-15-5-11-6-12-8-3-3 1-7 9-11 7-6 3-3 6-1v2l7 2 9 4 22 5 11 1 12-2v-2l3-1 3-8v-8l-6-7-5-2v-2l-5-1-28-12-5-3-6-2v-2l-5-1v-2h-3l-14-14-7-12-3-11v-12l4-16 2-4h2v-3h2v-3l5-5 6-5 3-3 7-4 5-3 11-4z" fill="#46669F"/>
<path transform="translate(250,797)" d="m0 0h12l14 3 6 2v2l6 2 4 2v2h3v2l4 1v2l4 2 6 6-1 5-6 8-11 11-9-2-8-4-13-3h-13l-9 3-11 8-7 8-7 14-3 14v15l2 16 4 12 7 12 8 7 10 5 8 1h10l18-4 12-6 6 1 5 5 1 3 7 6 2 4-1 7-9 9-11 7-8 4-14 4-10 1h-10l-19-3-13-4-14-9-8-7-5-3-8-11-8-16-5-17-3-16v-20l5-24 7-19 8-15 5-5 5-6 14-10 10-5 14-5z" fill="#46669F"/>
<path transform="translate(1320,799)" d="m0 0h28l16 5 12 7 10 9 2 1v2l3 1-2 4-19 19-5-1-8-4-13-4h-14l-10 2-11 8-8 9-6 13-2 7-1 22 1 15 5 15 6 11 9 7v3l5 1 8 3 13 1 17-4 12-7 5-1 4 1 4 5 2 1 1 3 2 1v3h2l2 7h2v5l-10 9-20 11-14 4-7 1h-14l-15-2-13-5-12-6v-2l-4-2-11-9-10-12-9-17-5-18-2-13v-23l2-13 3-11 4-9 7-15h2v-3h2v-3h2v-3l5-5 7-6h2v-2h3v-2l6-3h2v-2l12-5z" fill="#4666A0"/>
<path transform="translate(907,799)" d="m0 0h28l11 3 16 8 14 11v2l4 1-12 14-5 5-3 4-8-1-10-5-13-3h-10l-11 2-11 8-6 7-6 10-4 12-1 5v27l4 15 8 16 5 6 8 5 9 3 12 1 15-3 4-2h4v-2h3v-2h3v-2l6-1 9 8 10 13v5l-11 9-12 7-13 5-12 3h-21l-15-3-15-6-11-7-12-11-9-12-6-10-5-12-3-12-1-7v-28l2-13 4-14 5-12 4-7 1-2h2l1-5 4-5 4-4h2v-2l4-4 3-1 1-2h3v-2h3v-2l10-5 14-5z" fill="#4666A0"/>
<path transform="translate(1763,1118)" d="m0 0h40l12 3 12 6 5 4 4 6 2 7v8l-7 14-13 17-8 10-10 11-7 8-12 14-11 14-9 11-22 26-11 14-9 10-9 11-17 17-11 7-10 5-11 3-26 3h-179l-1-4 4-3 9-3 4-2-2-5 2-3 36 1 104 1 17 2h8l1-1 16-3 5-1 2-5 13-9 4-6 7-8 2-1 3-5 3-2 3-5h2l1-4 3-2 3-5 8-10 3-2 3-5 2-1 2-4 4-3 3-5h2l2-5 6-7 12-16 11-13 9-11 8-10 3-2 4-7 8-9 9-13 2-3h2l-1-3-20-3-14 2h-13l-13 6h-2l-1 2-11 6-10 5-3-1 1-4 14-8 2-2 4-1v-2l10-4 3-1v-3l4-4 1-3h-15l-6 2h-5v-2h3v-3l11-5z" fill="#5F7DC2"/>
<path transform="translate(1015,798)" d="m0 0h41l1 1 1 157 73 1 1 19v16l-2 1h-113l-2-1z" fill="#46669F"/>
<path transform="translate(1169,799)" d="m0 0h42l1 15 1 74v44l-1 49-1 12h-42l-1-1v-138z" fill="#4868A1"/>
<path transform="translate(801,409)" d="m0 0 9 5 8 5 10 5 17 11 15 9 16 9v-2l-4-2-14-8-17-12-14-9-8-6-5-5 5 2 15 10 16 11 11 6 8 5h7l10 7 3 3 8 4v2l4 1 7 4v2h3v2l4 1 4 2v2h3v2l6 2v2h3v2l5 1v2l5 2 4 3 5 2v2h3v2h3v2l5 2 27 18 18 11 11 7-4 4-9-2-14-8 5 4 11 8-1 2-11-1-16-8-21-13-11-8-16-10-34-22-18-13-20-14-15-10-26-16-10-9-4-4-10 9-19 14-51 34-19 13-22 14-15 9-8 5-7 6h-2l-1 3-5 2-12 6-13 8-2 2h-16l5-4 15-10 14-9 21-14 19-12 17-11 19-12 17-11 19-12 37-25z" fill="#C5C6CA"/>
<path transform="translate(518,1083)" d="m0 0h7l5 3 3 6 2 14 2 7 2 4 2 13 4 7v2l5-1 3-6 9 2 10 1 4-3v-8l-18-9-3-12 1-11 9-6 9-1h12l4 3 1 6-3 3-11 1h-5v5l1 3 5 2 10 10 3 7v14l-3 5h-3v2l-2 1h-45l-5-5-6-15-9-4-3 10-3 11-3 3h-38l-7-2-7-4-2-4h-2l-5-14v-18l4-9 4-5 8-5 3-1h18l7 3 1 3v7l-1 1h-14l-8-1-2 4-3 1-1 4v12l3 9 3 2v2l4 1 19 1v5l5-1 6-9 3-13 4-21 3-9z" fill="#062CFB"/>
<path transform="translate(1144,605)" d="m0 0h49l14 1 1 1-1 61-4 1h-22l-36-1-1-1z" fill="#C6C7CA"/>
<path transform="translate(1175,534)" d="m0 0 2 1 1 3 11 7 7 3 18 11 22 14 16 10 23 15 60 40 40 26 5 5-13-1-10-5-13-8-12-8-43-29-14-9-48-32-18-11-22-13-8-6-3-5-4 1-8 7-36 24-25 16-42 28-23 15-40 25-15 8-5 2h-7l1-5 9-5 13-7 24-16 43-28 19-12 39-26 22-14 10-7 20-12z" fill="#C4C6C9"/>
<path transform="translate(800,399)" d="m0 0h7l10 7 12 7 13 9 7 5 12 6 13 9-1 2-5-1-14-8-16-10-13-9-9-6 5 5 30 20 14 9 11 7v2l-6-2-22-13-22-14-15-8-9-6-9 5-57 38-19 12-17 11-24 15-15 10-16 10-13 9-11 7-18 12 9 1v2l-38 4h-13v-1l9-3 12-3 16-8 31-20 24-16 13-9 19-12 24-16 20-13 15-10 16-10 10-7 17-11 9-6z" fill="#FAFAFA"/>
<path transform="translate(1061,1085)" d="m0 0h17l8 5 3 5v2h2l2 9 1 1v15l-2 9-5 9-4 4-4 2h-18l-6-2-6-5v-3h-2l-6-16v-13l3-9 6-9 5-3z" fill="#052CFB"/>
<path transform="translate(948,1086)" d="m0 0h23l3 1v2l4 2 5 8 1 3v25l-4 10h-2l-1 4-5 3-3 2h-18l-5-2-3-3v-2l-3-1-4-9v-2h-2v-8l1-3 1-14 5-9 4-5z" fill="#052BFB"/>
<path transform="translate(801,409)" d="m0 0 9 5 10 6v2l-6-1-9-6-4 2-8 7-19 14-51 34-19 13-22 14-15 9-8 5-7 6h-2l-1 3-5 2-12 6-13 8-2 2h-16l5-4 15-10 14-9 21-14 19-12 17-11 19-12 17-11 19-12 37-25z" fill="#C5C6C9"/>
<path transform="translate(1309,1084)" d="m0 0 7 1 4 5 1 14 8-1v-9l2-5 4-4 4-1h7v2h2l-1 7-5 5-3 1-1 5-2 3v8l1 5h2l2 5 7 10 3 6 1 3-3 3v-2h-2v2l-12-1-5-11-2-8h-2l-1-2h-4l-1 18-1 3h-11l-4-1-1-6 2-6v-46z" fill="#052CFB"/>
<path transform="translate(376,1084)" d="m0 0 8 1 1 1 1 40 3 6h7l4-4 1-3 1-39 4-2h8l3 5v36l-4 9-2 5h-2l-1 4-6 3h-14l-8-3-7-8-1-2-1-14v-33z" fill="#062CFB"/>
<path transform="translate(752,1084)" d="m0 0 7 1 1 1 2 42 2 4 2 1h7l3-1 2-9 1-38 2-1h8l2 2v3h2v29l-1 1-1 12-3 8h-2l-1 3h-2v2l-6 2h-17l-6-4-3-5-3-9-2-12v-30z" fill="#042BFC"/>
<path transform="translate(690,1084)" d="m0 0h8l4 5 6 16 4 15 3 9 3 8v6h2v4h-15l-3-1-2-15-1-5-4-2h-5l-4 2-1 4v15l-7 2h-9l4-20 3-8 4-15 5-16z" fill="#062DFA"/>
<path transform="translate(622,1083)" d="m0 0h6l5 6 3 9 2 9 3 7 6 19 2 10h2v5h-10l-7-6-2-10-4-5-4-2v-2l-4 1-5 13-1 7-3 3h-7l-5-1 2-4 4-11 8-31 2-8 3-6z" fill="#052BFB"/>
<path transform="translate(772,483)" d="m0 0h26v59l-1 1h-10l-14-1-1-1-1-57z" fill="#C6C7CA"/>
<path transform="translate(626,717)" d="m0 0h32l6 1 1 3v35h-34l-5-1z" fill="#C6C7CA"/>
<path transform="translate(403,837)" d="m0 0h2l3 6 7 25 8 32 1 9-2 1-17 1-6 1h-8l-3-2 2-17 5-21 2-6z" fill="#FCFCFC"/>
<path transform="translate(734,840)" d="m0 0h2l3 5 7 24 5 21 5 17v3l-23 2h-12l-4-2 3-15 10-36 3-16z" fill="#FCFCFC"/>
<path transform="translate(574,1085)" d="m0 0h12l4 3 1 6-3 3-11 1h-5v5l1 3 5 2 10 10 3 7v14l-3 5h-3v2h-29l-3-2-1-6 2-5h6l10 2 5-2 1-1v-8l-18-9-3-12 1-11 9-6z" fill="#042BFB"/>
<path transform="translate(905,1085)" d="m0 0h11l6 4v9h-2v6l-1 2-3-1-1-4-4-2-2-2-7-1 1 8 5 5v2h3v2l9 3 4 8 1 4v8l-4 8-3 2h-24l-8-3v-7l1-4h7l1 1h15v-6l-9-6-9-5-3-7v-15l2-4 7-3z" fill="#052CFB"/>
<path transform="translate(627,669)" d="m0 0h36l2 4v32l-1 1h-37l-1-1v-20z" fill="#C6C7CA"/>
<path transform="translate(1277,1085)" d="m0 0h13l2 3v10l-2 2h-19l-1 3h-2l-1 16 2 9 2 4 22 1 1 1v7l-2 4-2 1-11 1h-10l-2-1v-2l-5-1-4-4v-3h-2l-4-14v-21l5-6 8-8z" fill="#062DFB"/>
<path transform="translate(1147,1085)" d="m0 0h16l4 2v7l-1 4-3 1h-17l-3 3h-2v3h-2l2 21 2 4h2v2l21 1-1 8-3 3-8 2-12-1-7-2-6-6-4-9-1-4v-19l3-9 6-7 7-3z" fill="#042BFB"/>
<path transform="translate(674,718)" d="m0 0h35l1 1v36l-1 1h-34l-1-1z" fill="#C6C7CA"/>
<path transform="translate(679,669)" d="m0 0h22l9 1v36h-34l-1-1v-35z" fill="#C6C7CA"/>
<path transform="translate(322,1084)" d="m0 0h33l3 2v6h-2l-2 4-4 1-2 4-3 1 1 42-4 2h-10l-2-4-2-39-4-6-6-5-2-6z" fill="#042AFC"/>
<path transform="translate(809,483)" d="m0 0h12l15 2 1 55-3 2h-24l-1-1v-25l3 1h8l10-5 2-4-1-4-4-2h-11l-6 2-1-1z" fill="#C6C7CA"/>
<path transform="translate(1188,535)" d="m0 0 11 6 10 7 19 11 4 1h3l8 5v2h3v2h3v2l4 1 14 9 15 10 16 10 39 26 3 1v2l5 2 8 5-2 1v2h3l7 8v3l-16-9-81-54-55-35v-2l-5-2-11-8-5-4z" fill="#C6C7CB"/>
<path transform="translate(843,1084)" d="m0 0h10l2 2v13l-1 19v22h2v5l-1 1h-16v-2l-5-1-2-4v-19l4-10 3-20 2-5z" fill="#072DFA"/>
<path transform="translate(1183,1085)" d="m0 0h7v2h3v44l3 3 6 2 11 1 3 4v3l-9 2h-29v-60z" fill="#092FF9"/>
<path transform="translate(408,687)" d="m0 0h2l-1 3-5 2-1 4-4 1h-4l-2 4-2 3h-3v2l-9 5-8 6-5 6-7 4-5 5h-2v7l-2 9 4 2 7 2 11-1 12-6 2 1-12 7-14 3-17 1h-23l-8-2 2-1v-3l14-8 11-9 7-4 1-2-2-1 7-3 10-9 19-12z" fill="#4D6CA3"/>
<path transform="translate(1e3 1084)" d="m0 0h10l3 2v11l-1 6v28l1 2 17 4 3 5v4h-30l-5-2-1-6 1-52z" fill="#042BFC"/>
<path transform="translate(963,466)" d="m0 0 5 2 13 8 21 13 26 15 19 12 14 10 9 7-4 1 5 5v2l-13 5h-12l-8-1-1-2h5v-2l-4-2 2-4h3l-6-11-4-5-1-6-7-4-3-3-10-6-8-5-11-7-5-4-6-3-12-8-7-6z" fill="#45659F"/>
<path transform="translate(1186,494)" d="m0 0 10 4 36 24 20 14 12 8 23 16 15 10 13 8 19 12 21 13 20 13 19 13 18 11 11 6 11 7 7 6 4 7v3l-10 2h-16l-11-1-5-1-5-2h-6l-4-2-3-5-4-1v-2h-3l-1-4 4 1v2l6 1 5 5 10 4 13 2h10l1-2h14l-3-5-5-3v-2l-5-2-14-10-6-3-15-10-25-15v-2h-3l-1-2-7-3-1-2-9-5-10-6v-2h-3l-4-4-9-5-10-7-23-15-14-9-22-15-16-10-10-7-7-5-3-1v-2l-5-2-19-13-5-3z" fill="#F0F2F4"/>
<path transform="translate(812,1084)" d="m0 0h8l5 3 1 7v18l-2 5h-2l-1 7v9l2 10-4 1v2l-11-1v-15l1-9 1-35z" fill="#062DFA"/>
<path transform="translate(1226,1084)" d="m0 0h10l3 2 1 37 1 22-1 1-13-1-1-3-1-43-1-5v-8z" fill="#052BFB"/>
<path transform="translate(953,1097)" d="m0 0h8l4 2 5 7v20l-7 7h-7l-4-1-3-4-1-6v-18l2-4z" fill="#F6F7F9"/>
<path transform="translate(1426,799)" d="m0 0 3 1h-2l1 4 2 1 1 3v12l-2 43-1 125-1 4h5v1h-6l-1-1v-190z" fill="#849DC4"/>
<path transform="translate(1513,1341)" d="m0 0 111 3-2 2-3 1h-146l-5-2 2-2 5-1z" fill="#45659F"/>
<path transform="translate(1063,1096)" d="m0 0h6l6 5 3 6v19l-4 5-2 1h-10l-5-9v-18l4-8z" fill="#F5F6F9"/>
<path transform="translate(192,823)" d="m0 0 1 4-2 4h-2l-1 4h-2l-3 9-4 5-2 7-1 4-3 21-2 4v21l1 9 1 18 4 11v2h-2l-6-18-4-20v-20l5-24 7-19 8-15 5-5z" fill="#5D7CC2"/>
<path transform="translate(1e3 739)" d="m0 0 5 2 11 8 9 6-1 2-52 1v-2h-8l-2-3 10 2 1-4 5-3h15l8 2v-3l-3-1v-4z" fill="#4B6BA4"/>
<path transform="translate(963,466)" d="m0 0 5 2 13 8 21 13 26 15 19 12 14 10 9 7-3 1-4-1-15-10-18-11-5-3-3-3-10-6-8-5-11-7-5-4-6-3-12-8-7-6z" fill="#F4F5F6"/>
<path transform="translate(819,372)" d="m0 0 6 2 14 9 30 20 10 7 7 5 1-3 3 1 1 2 8-9 4-2-3 23-6-2-16-12-22-14-8-6-7-4-17-12z" fill="#F4F5F6"/>
<path transform="translate(936,645)" d="m0 0 2 1-5 5v2l-15 10h2l3-2 7-1 2 3v2l17 1-3 3-3 1-14 1-13 2-6-2-2-3 1-5 4-4 5-4 7-2v-2l5-1v-2z" fill="#486AA2"/>
<path transform="translate(1304,1086)" d="m0 0 2 1v46l-2 9v3l15 1 1-18 1-3 4-1 1 3h2l5 13 2 3v3h9l-1 2h-9l-3-2-1 2h-21l-8-2-1-4 3-7 1-10v-24l-1-14z" fill="#EFF1F6"/>
<path transform="translate(1659,1322)" d="m0 0 2 1-4 4-12 3-7 1-2 1h-8l-16-2-104-1-13-1v-1l145-1 13-2z" fill="#91A6C5"/>
<path transform="translate(1763,1118)" d="m0 0h40l12 3 12 6 5 4 4 6 2 7v8l-3 7-1-3 1-7-3-10-2-6-4-3v-2l-7-1-8-3-17-2h-25l-22 4-5 2h-6l4-3 13-5z" fill="#92A8C9"/>
<path transform="translate(181,955)" d="m0 0 5 5 5 2 4 6 3 1 3 3 15 9 6 1 16 5 6 2 9 1 1 1h16l-2 2-10 1h-10l-19-3-13-4-14-9-8-7-5-3-8-11z" fill="#607EC1"/>
<path transform="translate(1186,494)" d="m0 0 10 4 36 24 20 14 12 8 23 16 15 10 10 7-2 1-23-15-14-9-22-15-16-10-10-7-7-5-3-1v-2l-5-2-19-13-5-3z" fill="#F3F4F5"/>
<path transform="translate(825,1089)" d="m0 0 2 4 1 25 5-2 1-3 1 2-2 5v19l1 3 2 2h-15l2-1-3-10v-9l2-7 2-1 1-4z" fill="#EBEEF4"/>
<path transform="translate(344,731)" d="m0 0v3l-9 6-2 10h2l2 4h27v-2l10-2 10-5 2 1-12 7-14 3-17 1h-23l-8-2 2-1v-3l14-8 11-9z" fill="#5F7EC2"/>
<path transform="translate(1432,798)" d="m0 0h38l1 1 1 7v66l5-5-2 9-4 2-2-6v-14l-2-46 1-12-36-1z" fill="#8EA4C5"/>
<path transform="translate(902,1095)" d="m0 0 7 1 6 5 2 4 2 1 1-8h1l-1 17-3 1-6-3v-2h-3l-3-4v-2l-3-1-1-8z" fill="#EEF1F5"/>
<path transform="translate(192,823)" d="m0 0 1 4-2 4h-2l-1 4h-2l-3 9-4 5-2 7-3 1-2 13-2 7-1 9-2 3-1 19h-1v-20l5-24 7-19 8-15 5-5z" fill="#7390C5"/>
<path transform="translate(578,510)" d="m0 0 2 1-24 16-10 8-3 1-1 7 19 3v1l-14 1h-12l-1-6 1-2h2v-2l11-9 15-10z" fill="#F9F9F9"/>
<path transform="translate(666,561)" d="m0 0 7 1 7 6 18 12-2 1-14-8-11-8h-6l-17 10-33 22-8 5-2-1 25-17 13-9 21-13z" fill="#5879AF"/>
<path transform="translate(1471,941)" d="m0 0 1 4-1 48-9 1h-30v-1l34-1-1-9 2-6 2-32z" fill="#8EA3C5"/>
<path transform="translate(819,372)" d="m0 0 6 2 14 9 30 20 10 7 3 3-1 2-11-7-7-5-7-4-8-6-7-4-17-12z" fill="#F2F3F4"/>
<path transform="translate(384,941)" d="m0 0h27l16 2 5 3-2 1-50-2 1-3z" fill="#7A95C4"/>
<path transform="translate(1377,653)" d="m0 0 4 1v2l6 1 5 5 10 4 13 2h10l1-2h14l1-2 3 3v2l-9 2h-16l-11-1-5-1-5-2h-6l-4-2-3-5-4-1v-2h-3z" fill="#7993C2"/>
<path transform="translate(1393,631)" d="m0 0 6 1 13 8 11 6 11 7 7 6 4 7-1 3-7-8-5-3v-2l-5-2-14-10-6-3-14-9z" fill="#EEF0F2"/>
<path transform="translate(911,660)" d="m0 0 2 1v1l3 1-3 3h12l10 1h13l-2 2-3 1-14 1-13 2-6-2-2-3 1-5z" fill="#6D8DC3"/>
<path transform="translate(1153,502)" d="m0 0m-2 1 2 1v1h2l-1 3-12 6-4 1v2h-4l-1 3-6 3-2-1v3l-7 4-4-1v-2l5-1v-2l6-2v-2l7-4 9-6 7-5z" fill="#3D649B"/>
<path transform="translate(693,1099)" d="m0 0 3 3 1 2v10l6-1v3l-16-1v-7l3-7z" fill="#B4BFD3"/>
<path transform="translate(1108,530)" d="m0 0h2v3h-3l-2 6-5 5-16 6-4 1v-2h3v-2h3v-2l7-5h3v-2l10-6h2z" fill="#5573A7"/>
<path transform="translate(667,521)" d="m0 0h5l14 9 12 8-2 1-5-3h-5l-15-9-3-2-8 1 3-3z" fill="#3A629A"/>
<path transform="translate(1059,530)" d="m0 0 7 4 5 5v2l-13 5h-12l-8-1v-1h20v-3l3-3-3-3z" fill="#6A87C2"/>
<path transform="translate(514,948)" d="m0 0 3 1-1 7h-2v4l-5 4-3 3-4 1 1-7 9-11z" fill="#5C7BC1"/>
<path transform="translate(1434,659)" d="m0 0 5 3 1 4-7 1-7-1-1 3h-10l1-6 14-1 4-1z" fill="#4666A0"/>
<path transform="translate(205,979)" d="m0 0 7 2 10 4v2l10 1 5 2 6 1h27l-2 2-10 1h-10l-19-3-13-4-11-7z" fill="#8AA1C5"/>
<path transform="translate(545,538)" d="m0 0h5l3 1 8 1 2 2 5 1-2 2-10 1-12-2-3-3 1-2z" fill="#45659F"/>
<path transform="translate(1175,613)" d="m0 0h2v15l-1 15-2 2-2-2-1-8 1-5 1-14z" fill="#FEFEFE"/>
<path transform="translate(625,1100)" d="m0 0 4 1 2 4 1 10-1 1h-6l-2-2v-11z" fill="#8198C3"/>
<path transform="translate(1299,986)" d="m0 0 13 2 1 1 24 2h15l-4 2-7 1h-14l-15-2-13-5z" fill="#7891C4"/>
<path transform="translate(534,944)" d="m0 0 13 5 19 4 7 1-4 2-15 1-4-3-5-2v-2h-7l-4-3z" fill="#6F8AC3"/>
<path transform="translate(638,916)" d="m0 0 2 3 2 8v14l-4 11-2-3 2-10v-7l-1-1v-13z" fill="#7E98C4"/>
<path transform="translate(301,831)" d="m0 0 3 1-2 4-11 11-9-2 1-4 8-1v-2h2l1-3 6-1z" fill="#6381C1"/>
<path transform="translate(825,1089)" d="m0 0 2 4 1 25 5-2 1-3 1 2-2 5-1 17h-1l-1-11-6-7h-2v-2l2-1 1-4z" fill="#96A7C5"/>
<path transform="translate(176,847)" d="m0 0 2 1-5 15-3 14-1 9-2 3-1 19h-1v-20l5-24z" fill="#7F9BC4"/>
<path transform="translate(531,985)" d="m0 0 9 2 9 1 7 2h9l11 1 16-1-3 2-6 1h-24l-16-3-12-4z" fill="#7893C4"/>
<path transform="translate(250,797)" d="m0 0h12l11 2v1h-25l-20 2-1 3-6 1h-4l2-2 14-5z" fill="#8BA0C5"/>
<path transform="translate(1304,1086)" d="m0 0 2 1v46l-2 9v3l4 1h-7l-1-4 3-7 1-10v-24l-1-14z" fill="#879FC5"/>
<path transform="translate(167,888)" d="m0 0 2 3v23l2 13v5l-2-4-3-14v-25z" fill="#7493C3"/>
<path transform="translate(384,745)" d="m0 0 2 1-12 7-14 3-17 1h-23l2-2h19l11-1h12v-2l10-2z" fill="#6C8BBB"/>
<path transform="translate(929,660)" d="m0 0 3 3v2l17 1-4 2h-16l-16-2v-2h6l4-3z" fill="#45659F"/>
<path transform="translate(1288,597)" d="m0 0 5 1 17 11 4 4-2 1-14-7-9-7z" fill="#E6E9EE"/>
<path transform="translate(553,1132)" d="m0 0 3 1-2 1-1 5 1 5 2 1 27 1v1h-45v-1h8l1-4h2v-2l-2-1 3-1z" fill="#7A92C4"/>
<path transform="translate(1730,1130)" d="m0 0 2 1-14 9-14 7-3-1 1-3z" fill="#FEFEFE"/>
<path transform="translate(1825,1171)" d="m0 0v3l-10 13-12 14-9 10v-3l13-16 9-10z" fill="#F2F2F2"/>
<path transform="translate(522,1102)" d="m0 0 3 1 3 7v5l-4 2h-3l-2-6z" fill="#6687C2"/>
<path transform="translate(590,1088)" d="m0 0 2 2v5l-3 3h-3v2l-10 3-1 4-4-4v-5l1-1h9l7-1 2-4z" fill="#9BAAC5"/>
<path transform="translate(1768,1197)" d="m0 0v3l-1 5h-2l-1 4-1 2h-3v2h-3l-2 4-6 7-2-1 10-13z" fill="#839DC4"/>
<path transform="translate(1734,1277)" d="m0 0h3l-1 4-10 12h-5l2-5 3-4h3l1-2z" fill="#5875AA"/>
<path transform="translate(491,1137)" d="m0 0 2 2h5l-3 6 6-1v2h8v1h-38v-1l18-1z" fill="#7B97C4"/>
<path transform="translate(894,667)" d="m0 0 6 2 11 8 8 5v2l5 2 7 5-2 1-11-7-11-8-11-7-2-1z" fill="#6580AF"/>
<path transform="translate(169,906)" d="m0 0h2l1 9 1 18 4 11v2h-2l-4-11-3-22z" fill="#6583C3"/>
<path transform="translate(942,741)" d="m0 0 5 2 9 6 9 5 1 1 8 1v1h-9l-2-1v-2l-12-4-6-1z" fill="#C6C7CA"/>
<path transform="translate(376,751)" d="m0 0 2 1-10 5-11 1h-19v-1l18-2 11-1z" fill="#C6C7CA"/>
<path transform="translate(1784,1143)" d="m0 0h11l11 2v3l-6-2h-14l-15 2h-5l3-2z" fill="#C6C7CA"/>
<path transform="translate(301,953)" d="m0 0 4 1 5 6 1 7-3 4h-2v-8h2l-1-4-6-2z" fill="#6E8BC3"/>
<path transform="translate(1225,1135)" d="m0 0h1l1 11-5 2-3-2-5-1 2-1-3-7 3 1 4 4 3-1z" fill="#B5C0D2"/>
<path transform="translate(209,809)" d="m0 0 2 1v4l-8 5-8 3-2 1 2-4z" fill="#829CC4"/>
<path transform="translate(578,510)" d="m0 0 2 1-33 22 2-4 9-7z" fill="#F0F1F1"/>
<path transform="translate(1427,1280)" d="m0 0 2 4 7 19 6 8 4 5-4-2-5-5-6-11-4-12z" fill="#C6C7CA"/>
<path transform="translate(249,835)" d="m0 0h14l12 4 1 2-15-3h-13l-10 3v-2z" fill="#8AA0C5"/>
<path transform="translate(235,770)" d="m0 0m-1 1m-2 1h2l-2 4-19 19-2-1 4-5 5-5z" fill="#FEFEFE"/>
<path transform="translate(667,521)" d="m0 0h5l6 4v5l-6-2-4-3-8 1 3-3z" fill="#5674AA"/>
<path transform="translate(1377,653)" d="m0 0 4 1v2l6 1 5 5 5 3-4 2-5-2-3-5-4-1v-2h-3z" fill="#B7BDC7"/>
<path transform="translate(734,835)" d="m0 0 2 1 2 5-1 3-1-4h-2l-2 14-4 17h-1l1-9 4-21z" fill="#90A5C5"/>
<path transform="translate(1650,843)" d="m0 0h17l6 3-3 1-4-1h-16l-6 3-3 2 2-4z" fill="#C6C7CA"/>
<path transform="translate(1832,1135)" d="m0 0 5 5 1 4v8l-3 7-1-3 1-7-3-10z" fill="#7594C3"/>
<path transform="translate(1465,800)" d="m0 0h4l-1 17-1 6h-1l-2-17z" fill="#5D7CC2"/>
<path transform="translate(668,566)" d="m0 0 4 1 4 5-1 7-4-2-3-7z" fill="#FEFEFE"/>
<path transform="translate(514,948)" d="m0 0v3l-2 4-1 5-4 3-4 1-1 4 1-7 9-11z" fill="#819CC4"/>
<path transform="translate(446,706)" d="m0 0 2 1-8 6-5 5-9 4-2-1 13-9z" fill="#C6C7CA"/>
<path transform="translate(636,539)" d="m0 0 2 1-5 4h-2v2l-8 4-14 9-2-1 21-14z" fill="#93A6C4"/>
<path transform="translate(408,687)" d="m0 0h2l-1 3-5 2-1 4-13 3 4-4z" fill="#8598BA"/>
<path transform="translate(1172,491)" d="m0 0h2v2l-11 6-9 3v-2l13-8z" fill="#708BBB"/>
<path transform="translate(534,944)" d="m0 0 13 5 13 3v1h-14l-1-3h-7l-4-3z" fill="#879DC4"/>
<path transform="translate(671,562)" d="m0 0 4 2 14 10 9 6-2 1-14-8-8-6z" fill="#5878AF"/>
<path transform="translate(1329,1090)" d="m0 0 1 4-1 9-2 1h-6l-1-8 2 1v3l4-1z" fill="#899EC4"/>
<path transform="translate(908,665)" d="m0 0 4 3 17 2-4 2-9 1-6-2-2-3z" fill="#C6C7CA"/>
<path transform="translate(409,1139)" d="m0 0h1v5l-10 5h-9l-2-3 13-1 6-3z" fill="#D0D8E7"/>
<path transform="translate(666,561)" d="m0 0h5l3 5-9-1-10 6-2-1 4-4z" fill="#6182B7"/>
<path transform="translate(182,838)" d="m0 0h2l-2 7-3 4-2 7-2 1 1-5 2-9z" fill="#6485C2"/>
<path transform="translate(804,411)" d="m0 0 14 8 2 1v2l-6-1-10-7z" fill="#5172AA"/>
<path transform="translate(541,539)" d="m0 0 6 3 19 2v1l-10 1-12-2-3-3z" fill="#829AC4"/>
<path transform="translate(491,1088)" d="m0 0 2 3v7l-1 1h-14l-5-1v-1l16 1 1-5z" fill="#728CC3"/>
<path transform="translate(1379,954)" d="m0 0h7v3h2l1 4-8-1z" fill="#6280BF"/>
<path transform="translate(1061,541)" d="m0 0 3 3-6 2h-12l-8-1v-1l20-1z" fill="#97A9C6"/>
<path transform="translate(877,446)" d="m0 0 4 1 7 4 1 2 7 4-1 2-11-6-1-3-5-2z" fill="#E7EAEE"/>
<path transform="translate(168,878)" d="m0 0h1v8l-2 3-1 19h-1v-20l2-9z" fill="#A5B4CA"/>
<path transform="translate(1153,502)" d="m0 0m-2 1 2 1v1h2l-1 3-8 2h-3l1-3z" fill="#2A5D91"/>
<path transform="translate(1580,988)" d="m0 0 3 4v1h-36v-1l32-1z" fill="#7594C3"/>
<path transform="translate(1599,1056)" d="m0 0 3 1-7 6-9 4-2-1 4-3h2v-2l4-1z" fill="#5F7FC2"/>
<path transform="translate(628,1104)" d="m0 0 2 2 2 5-1 5h-6v-3h3z" fill="#C0C8D9"/>
<path transform="translate(1470,863)" d="m0 0h1l1 9 5-5-2 9-4 2-1-2z" fill="#8FA3C5"/>
<path transform="translate(325,745)" d="m0 0 2 1-9 8-2 2-4-2h2v-3z" fill="#849EC5"/>
<path transform="translate(358,716)" d="m0 0 2 2-19 8-3-1 5-3z" fill="#FEFEFE"/>
<path transform="translate(1125,519)" d="m0 0 2 1-2 1zm-2 2h2v4l-7 4-4-1v-2l5-1v-2z" fill="#506FA4"/>
<path transform="translate(1305,1128)" d="m0 0h1l-1 8-1 9 4 1h-7l-1-4z" fill="#6E8AC3"/>
<path transform="translate(181,955)" d="m0 0 7 6 4 5-1 4-9-11z" fill="#C7D2E1"/>
<path transform="translate(1176,536)" d="m0 0 9 6 7 5-2 1-13-7-2-4z" fill="#5576AD"/>
<path transform="translate(1058,564)" d="m0 0h2v2l-11 7-4 1v-2h3l1-3h3v-2h3v-2z" fill="#5B77A9"/>
<path transform="translate(491,1137)" d="m0 0 2 2h5l-4 7h-5z" fill="#6180C2"/>
<path transform="translate(1299,986)" d="m0 0 13 2 2 2 7 2-3 1-12-3-7-3z" fill="#899FC5"/>
<path transform="translate(909,401)" d="m0 0h6v1l-6 2-2 4h-3l-2 3 1-7z" fill="#4C6CA5"/>
<path transform="translate(370,710)" d="m0 0 2 1-7 6-6 4h-2l1-3z" fill="#A4B5CF"/>
<path transform="translate(693,1099)" d="m0 0 2 1v2h-2l1 4-2 6h-1v-8h-2l2-4z" fill="#6988C0"/>
<path transform="translate(637,918)" d="m0 0 2 3 1 8v10l-2-4-1-4z" fill="#5D7CC2"/>
<path transform="translate(235,841)" d="m0 0 3 1-6 4-8 6 2-5 4-4z" fill="#7591C3"/>
<path transform="translate(1280,1132)" d="m0 0h15l1 1v8h-2l-1-7-13-1z" fill="#899FC5"/>
<path transform="translate(937,667)" d="m0 0h11l-2 2-3 1h-13v-1z" fill="#97A8C6"/>
<path transform="translate(585,569)" d="m0 0m-1 1m-1 1m-1 1m-1 1v3l-5 5-3 2-3-1z" fill="#E7EBF2"/>
<path transform="translate(1101,1131)" d="m0 0 1 3-4 5-1 3h-2v-6z" fill="#FEFEFE"/>
<path transform="translate(1035,578)" d="m0 0h4v2l-10 6-4 1v-2h3v-2h3v-2l3-1z" fill="#5A77A9"/>
<path transform="translate(1213,1137)" d="m0 0 3 1 4 4v2l3 1-4 1-5-1 2-1z" fill="#829BC4"/>
<path transform="translate(920,1098)" d="m0 0h1l-1 17-3 1-2-2 3-3 1-7z" fill="#829BC4"/>
<path transform="translate(301,953)" d="m0 0 4 1 4 4-1 2-7-3z" fill="#7890C2"/>
<path transform="translate(171,865)" d="m0 0h1l-1 8-2 5-2 1 2-11z" fill="#7795C3"/>
<path transform="translate(358,1132)" d="m0 0 2 2v7l-1 2h-2v-10z" fill="#FEFEFE"/>
<path transform="translate(1824,1127)" d="m0 0 4 1 5 5 3 4-1 2-6-7-3-2v-2z" fill="#AAB8CE"/>
<path transform="translate(554,859)" d="m0 0 14 8-3 1-9-4z" fill="#A8B4C7"/>
<path transform="translate(209,809)" d="m0 0 2 1v4l-5 3h-2l2-4z" fill="#6280C2"/>
<path transform="translate(1061,539)" d="m0 0 8 1-1 2-5 1h-3-2v-2z" fill="#5A7BB6"/>
<path transform="translate(652,569)" d="m0 0 2 1-4 4-6 4-2-1 4-4z" fill="#5C7DB3"/>
<path transform="translate(232,787)" d="m0 0 2 1-13 8-2-1 9-6z" fill="#FEFEFE"/>
<path transform="translate(323,742)" d="m0 0 3 1-9 6h-5l4-3z" fill="#E9EAEB"/>
<path transform="translate(257,753)" d="m0 0v3l-11 6-3-1z" fill="#FEFEFE"/>
<path transform="translate(1104,1136)" d="m0 0 2 1v4l-5-1z" fill="#FEFEFE"/>
<path transform="translate(931,1146)" d="m0 0 5 1-1 2-5-1z" fill="#FEFEFE"/>
<path transform="translate(1104,1124)" d="m0 0 2 2-2 4-2-2z" fill="#FEFEFE"/>
<path transform="translate(213,798)" d="m0 0 2 1-4 3-3-1z" fill="#FEFEFE"/>
<path transform="translate(241,782)" d="m0 0 2 1-5 2z" fill="#FEFEFE"/>
<path transform="translate(266,750)" d="m0 0 3 1-5 1z" fill="#FEFEFE"/>
<path transform="translate(236,785)" d="m0 0 2 1-4 1z" fill="#FEFEFE"/>
<path transform="translate(1169,1146)" d="m0 0 1 2-2-1z" fill="#FEFEFE"/>
<path transform="translate(259,753)" d="m0 0 3 1z" fill="#FEFEFE"/>
<path transform="translate(1251,1147)" d="m0 0 2 1z" fill="#FEFEFE"/>
<path transform="translate(1353,1139)" d="m0 0" fill="#FEFEFE"/>
<path transform="translate(1119,1138)" d="m0 0" fill="#FEFEFE"/>
<path transform="translate(443,1133)" d="m0 0" fill="#FEFEFE"/>
<path transform="translate(442,1131)" d="m0 0" fill="#FEFEFE"/>
<path transform="translate(224,785)" d="m0 0 2 1z" fill="#FEFEFE"/>
<path transform="translate(243,781)" d="m0 0 2 1z" fill="#FEFEFE"/>
<path transform="translate(245,780)" d="m0 0 2 1z" fill="#FEFEFE"/>
<path transform="translate(299,758)" d="m0 0 2 1z" fill="#FEFEFE"/>
<path transform="translate(262,752)" d="m0 0 2 1z" fill="#FEFEFE"/>
<path transform="translate(309,749)" d="m0 0 2 1z" fill="#FEFEFE"/>
<path transform="translate(1297,1147)" d="m0 0" fill="#FEFEFE"/>
<path transform="translate(1299,1145)" d="m0 0" fill="#C6C7CA"/>
<path transform="translate(1113,1141)" d="m0 0" fill="#FEFEFE"/>
<path transform="translate(1099,1130)" d="m0 0" fill="#FEFEFE"/>
<path transform="translate(303 1e3)" d="m0 0" fill="#FEFEFE"/>
<path transform="translate(204,805)" d="m0 0" fill="#FEFEFE"/>
<path transform="translate(205,804)" d="m0 0" fill="#FEFEFE"/>
<path transform="translate(206,803)" d="m0 0" fill="#FEFEFE"/>
<path transform="translate(207,802)" d="m0 0" fill="#FEFEFE"/>
<path transform="translate(215,797)" d="m0 0" fill="#FEFEFE"/>
<path transform="translate(226,784)" d="m0 0" fill="#FEFEFE"/>
<path transform="translate(227,783)" d="m0 0" fill="#FEFEFE"/>
<path transform="translate(301,757)" d="m0 0" fill="#FEFEFE"/>
<path transform="translate(291,740)" d="m0 0" fill="#FEFEFE"/>
<path transform="translate(333,735)" d="m0 0" fill="#FEFEFE"/>
<path transform="translate(1071,535)" d="m0 0" fill="#FEFEFE"/>
<path transform="translate(1070,534)" d="m0 0" fill="#FEFEFE"/>
</svg>
